<mxfile host="Electron" agent="Mozilla/5.0 (X11; Linux x86_64) AppleWebKit/537.36 (KHTML, like Gecko) draw.io/24.7.17 Chrome/128.0.6613.36 Electron/32.0.1 Safari/537.36" version="24.7.17">
  <diagram name="Seite-1" id="jhIarChRG7f88SDeRfli">
    <mxGraphModel dx="2022" dy="733" grid="1" gridSize="10" guides="1" tooltips="1" connect="1" arrows="1" fold="1" page="1" pageScale="1" pageWidth="827" pageHeight="1169" math="0" shadow="0">
      <root>
        <mxCell id="0" />
        <mxCell id="1" parent="0" />
        <mxCell id="7bdO0_Jatn6OFKNcG_lT-108" value="" style="rounded=0;whiteSpace=wrap;html=1;" vertex="1" parent="1">
          <mxGeometry x="100" y="340" width="520" height="640" as="geometry" />
        </mxCell>
        <mxCell id="7bdO0_Jatn6OFKNcG_lT-1" value="Idle" style="ellipse;whiteSpace=wrap;html=1;fillColor=#ffe6cc;strokeColor=#d79b00;" vertex="1" parent="1">
          <mxGeometry x="320" y="400" width="80" height="40" as="geometry" />
        </mxCell>
        <mxCell id="7bdO0_Jatn6OFKNcG_lT-2" value="z0" style="ellipse;whiteSpace=wrap;html=1;fillColor=#ffe6cc;strokeColor=#d79b00;" vertex="1" parent="1">
          <mxGeometry x="200" y="480" width="80" height="40" as="geometry" />
        </mxCell>
        <mxCell id="7bdO0_Jatn6OFKNcG_lT-3" value="z1" style="ellipse;whiteSpace=wrap;html=1;fillColor=#ffe6cc;strokeColor=#d79b00;" vertex="1" parent="1">
          <mxGeometry x="200" y="560" width="80" height="40" as="geometry" />
        </mxCell>
        <mxCell id="7bdO0_Jatn6OFKNcG_lT-4" value="z2" style="ellipse;whiteSpace=wrap;html=1;fillColor=#ffe6cc;strokeColor=#d79b00;" vertex="1" parent="1">
          <mxGeometry x="200" y="640" width="80" height="40" as="geometry" />
        </mxCell>
        <mxCell id="7bdO0_Jatn6OFKNcG_lT-5" value="z3" style="ellipse;whiteSpace=wrap;html=1;fillColor=#ffe6cc;strokeColor=#d79b00;" vertex="1" parent="1">
          <mxGeometry x="200" y="720" width="80" height="40" as="geometry" />
        </mxCell>
        <mxCell id="7bdO0_Jatn6OFKNcG_lT-6" value="z4" style="ellipse;whiteSpace=wrap;html=1;fillColor=#ffe6cc;strokeColor=#d79b00;" vertex="1" parent="1">
          <mxGeometry x="200" y="800" width="80" height="40" as="geometry" />
        </mxCell>
        <mxCell id="7bdO0_Jatn6OFKNcG_lT-7" value="e0" style="ellipse;whiteSpace=wrap;html=1;fillColor=#ffe6cc;strokeColor=#d79b00;" vertex="1" parent="1">
          <mxGeometry x="440" y="480" width="80" height="40" as="geometry" />
        </mxCell>
        <mxCell id="7bdO0_Jatn6OFKNcG_lT-8" value="e1" style="ellipse;whiteSpace=wrap;html=1;fillColor=#ffe6cc;strokeColor=#d79b00;" vertex="1" parent="1">
          <mxGeometry x="440" y="560" width="80" height="40" as="geometry" />
        </mxCell>
        <mxCell id="7bdO0_Jatn6OFKNcG_lT-9" value="e2" style="ellipse;whiteSpace=wrap;html=1;fillColor=#ffe6cc;strokeColor=#d79b00;" vertex="1" parent="1">
          <mxGeometry x="440" y="640" width="80" height="40" as="geometry" />
        </mxCell>
        <mxCell id="7bdO0_Jatn6OFKNcG_lT-10" value="e3" style="ellipse;whiteSpace=wrap;html=1;fillColor=#ffe6cc;strokeColor=#d79b00;" vertex="1" parent="1">
          <mxGeometry x="440" y="720" width="80" height="40" as="geometry" />
        </mxCell>
        <mxCell id="7bdO0_Jatn6OFKNcG_lT-11" value="e4" style="ellipse;whiteSpace=wrap;html=1;fillColor=#ffe6cc;strokeColor=#d79b00;" vertex="1" parent="1">
          <mxGeometry x="440" y="800" width="80" height="40" as="geometry" />
        </mxCell>
        <mxCell id="7bdO0_Jatn6OFKNcG_lT-12" value="bs" style="ellipse;whiteSpace=wrap;html=1;fillColor=#ffe6cc;strokeColor=#d79b00;" vertex="1" parent="1">
          <mxGeometry x="320" y="880" width="80" height="40" as="geometry" />
        </mxCell>
        <mxCell id="7bdO0_Jatn6OFKNcG_lT-13" value="" style="endArrow=classic;html=1;rounded=0;exitX=0;exitY=0.5;exitDx=0;exitDy=0;entryX=0.5;entryY=0;entryDx=0;entryDy=0;" edge="1" parent="1" source="7bdO0_Jatn6OFKNcG_lT-1" target="7bdO0_Jatn6OFKNcG_lT-2">
          <mxGeometry width="50" height="50" relative="1" as="geometry">
            <mxPoint x="240" y="410" as="sourcePoint" />
            <mxPoint x="290" y="360" as="targetPoint" />
            <Array as="points">
              <mxPoint x="240" y="420" />
            </Array>
          </mxGeometry>
        </mxCell>
        <mxCell id="7bdO0_Jatn6OFKNcG_lT-63" value="rxd=0" style="edgeLabel;html=1;align=center;verticalAlign=middle;resizable=0;points=[];" vertex="1" connectable="0" parent="7bdO0_Jatn6OFKNcG_lT-13">
          <mxGeometry x="-0.1381" y="2" relative="1" as="geometry">
            <mxPoint x="20" y="-2" as="offset" />
          </mxGeometry>
        </mxCell>
        <mxCell id="7bdO0_Jatn6OFKNcG_lT-14" value="" style="endArrow=classic;html=1;rounded=0;exitX=1;exitY=0.5;exitDx=0;exitDy=0;entryX=0.5;entryY=0;entryDx=0;entryDy=0;" edge="1" parent="1" source="7bdO0_Jatn6OFKNcG_lT-1" target="7bdO0_Jatn6OFKNcG_lT-7">
          <mxGeometry width="50" height="50" relative="1" as="geometry">
            <mxPoint x="430" y="420" as="sourcePoint" />
            <mxPoint x="480" y="370" as="targetPoint" />
            <Array as="points">
              <mxPoint x="480" y="420" />
            </Array>
          </mxGeometry>
        </mxCell>
        <mxCell id="7bdO0_Jatn6OFKNcG_lT-75" value="rxd=1" style="edgeLabel;html=1;align=center;verticalAlign=middle;resizable=0;points=[];" vertex="1" connectable="0" parent="7bdO0_Jatn6OFKNcG_lT-14">
          <mxGeometry x="-0.5463" y="-1" relative="1" as="geometry">
            <mxPoint as="offset" />
          </mxGeometry>
        </mxCell>
        <mxCell id="7bdO0_Jatn6OFKNcG_lT-15" value="" style="endArrow=classic;html=1;rounded=0;" edge="1" parent="1">
          <mxGeometry width="50" height="50" relative="1" as="geometry">
            <mxPoint x="239.8" y="520" as="sourcePoint" />
            <mxPoint x="239.8" y="560" as="targetPoint" />
          </mxGeometry>
        </mxCell>
        <mxCell id="7bdO0_Jatn6OFKNcG_lT-64" value="rxd=0" style="edgeLabel;html=1;align=center;verticalAlign=middle;resizable=0;points=[];" vertex="1" connectable="0" parent="7bdO0_Jatn6OFKNcG_lT-15">
          <mxGeometry x="-0.1333" y="-1" relative="1" as="geometry">
            <mxPoint as="offset" />
          </mxGeometry>
        </mxCell>
        <mxCell id="7bdO0_Jatn6OFKNcG_lT-16" value="" style="endArrow=classic;html=1;rounded=0;" edge="1" parent="1">
          <mxGeometry width="50" height="50" relative="1" as="geometry">
            <mxPoint x="239.8" y="600" as="sourcePoint" />
            <mxPoint x="239.8" y="640" as="targetPoint" />
          </mxGeometry>
        </mxCell>
        <mxCell id="7bdO0_Jatn6OFKNcG_lT-65" value="rxd=0" style="edgeLabel;html=1;align=center;verticalAlign=middle;resizable=0;points=[];" vertex="1" connectable="0" parent="7bdO0_Jatn6OFKNcG_lT-16">
          <mxGeometry x="-0.2" y="1" relative="1" as="geometry">
            <mxPoint as="offset" />
          </mxGeometry>
        </mxCell>
        <mxCell id="7bdO0_Jatn6OFKNcG_lT-17" value="" style="endArrow=classic;html=1;rounded=0;" edge="1" parent="1">
          <mxGeometry width="50" height="50" relative="1" as="geometry">
            <mxPoint x="239.8" y="680" as="sourcePoint" />
            <mxPoint x="239.8" y="720" as="targetPoint" />
          </mxGeometry>
        </mxCell>
        <mxCell id="7bdO0_Jatn6OFKNcG_lT-66" value="rxd=0" style="edgeLabel;html=1;align=center;verticalAlign=middle;resizable=0;points=[];" vertex="1" connectable="0" parent="7bdO0_Jatn6OFKNcG_lT-17">
          <mxGeometry x="-0.2167" y="1" relative="1" as="geometry">
            <mxPoint as="offset" />
          </mxGeometry>
        </mxCell>
        <mxCell id="7bdO0_Jatn6OFKNcG_lT-18" value="" style="endArrow=classic;html=1;rounded=0;" edge="1" parent="1">
          <mxGeometry width="50" height="50" relative="1" as="geometry">
            <mxPoint x="239.8" y="760" as="sourcePoint" />
            <mxPoint x="239.8" y="800" as="targetPoint" />
          </mxGeometry>
        </mxCell>
        <mxCell id="7bdO0_Jatn6OFKNcG_lT-67" value="rxd=0" style="edgeLabel;html=1;align=center;verticalAlign=middle;resizable=0;points=[];" vertex="1" connectable="0" parent="7bdO0_Jatn6OFKNcG_lT-18">
          <mxGeometry x="-0.0333" y="1" relative="1" as="geometry">
            <mxPoint as="offset" />
          </mxGeometry>
        </mxCell>
        <mxCell id="7bdO0_Jatn6OFKNcG_lT-19" value="" style="endArrow=classic;html=1;rounded=0;" edge="1" parent="1">
          <mxGeometry width="50" height="50" relative="1" as="geometry">
            <mxPoint x="479.8" y="520" as="sourcePoint" />
            <mxPoint x="479.8" y="560" as="targetPoint" />
          </mxGeometry>
        </mxCell>
        <mxCell id="7bdO0_Jatn6OFKNcG_lT-74" value="rxd=1" style="edgeLabel;html=1;align=center;verticalAlign=middle;resizable=0;points=[];" vertex="1" connectable="0" parent="7bdO0_Jatn6OFKNcG_lT-19">
          <mxGeometry x="-0.1881" y="2" relative="1" as="geometry">
            <mxPoint as="offset" />
          </mxGeometry>
        </mxCell>
        <mxCell id="7bdO0_Jatn6OFKNcG_lT-20" value="" style="endArrow=classic;html=1;rounded=0;" edge="1" parent="1">
          <mxGeometry width="50" height="50" relative="1" as="geometry">
            <mxPoint x="479.8" y="600" as="sourcePoint" />
            <mxPoint x="479.8" y="640" as="targetPoint" />
          </mxGeometry>
        </mxCell>
        <mxCell id="7bdO0_Jatn6OFKNcG_lT-76" value="rxd=1" style="edgeLabel;html=1;align=center;verticalAlign=middle;resizable=0;points=[];" vertex="1" connectable="0" parent="7bdO0_Jatn6OFKNcG_lT-20">
          <mxGeometry x="0.05" y="1" relative="1" as="geometry">
            <mxPoint x="-1" y="-1" as="offset" />
          </mxGeometry>
        </mxCell>
        <mxCell id="7bdO0_Jatn6OFKNcG_lT-21" value="" style="endArrow=classic;html=1;rounded=0;" edge="1" parent="1">
          <mxGeometry width="50" height="50" relative="1" as="geometry">
            <mxPoint x="479.8" y="680" as="sourcePoint" />
            <mxPoint x="479.8" y="720" as="targetPoint" />
          </mxGeometry>
        </mxCell>
        <mxCell id="7bdO0_Jatn6OFKNcG_lT-77" value="rxd=1" style="edgeLabel;html=1;align=center;verticalAlign=middle;resizable=0;points=[];" vertex="1" connectable="0" parent="7bdO0_Jatn6OFKNcG_lT-21">
          <mxGeometry x="-0.0929" relative="1" as="geometry">
            <mxPoint as="offset" />
          </mxGeometry>
        </mxCell>
        <mxCell id="7bdO0_Jatn6OFKNcG_lT-22" value="" style="endArrow=classic;html=1;rounded=0;" edge="1" parent="1">
          <mxGeometry width="50" height="50" relative="1" as="geometry">
            <mxPoint x="479.8" y="760" as="sourcePoint" />
            <mxPoint x="479.8" y="800" as="targetPoint" />
          </mxGeometry>
        </mxCell>
        <mxCell id="7bdO0_Jatn6OFKNcG_lT-78" value="rxd=1" style="edgeLabel;html=1;align=center;verticalAlign=middle;resizable=0;points=[];" vertex="1" connectable="0" parent="7bdO0_Jatn6OFKNcG_lT-22">
          <mxGeometry x="-0.1405" y="1" relative="1" as="geometry">
            <mxPoint as="offset" />
          </mxGeometry>
        </mxCell>
        <mxCell id="7bdO0_Jatn6OFKNcG_lT-24" value="" style="endArrow=classic;html=1;rounded=0;entryX=0;entryY=0.5;entryDx=0;entryDy=0;fillColor=#dae8fc;strokeColor=#6c8ebf;" edge="1" parent="1" target="7bdO0_Jatn6OFKNcG_lT-7">
          <mxGeometry width="50" height="50" relative="1" as="geometry">
            <mxPoint x="320" y="520" as="sourcePoint" />
            <mxPoint x="400" y="510" as="targetPoint" />
          </mxGeometry>
        </mxCell>
        <mxCell id="7bdO0_Jatn6OFKNcG_lT-25" value="" style="endArrow=none;html=1;rounded=0;entryX=1;entryY=1;entryDx=0;entryDy=0;fillColor=#dae8fc;strokeColor=#6c8ebf;" edge="1" parent="1" target="7bdO0_Jatn6OFKNcG_lT-2">
          <mxGeometry width="50" height="50" relative="1" as="geometry">
            <mxPoint x="320" y="520" as="sourcePoint" />
            <mxPoint x="410" y="510" as="targetPoint" />
          </mxGeometry>
        </mxCell>
        <mxCell id="7bdO0_Jatn6OFKNcG_lT-81" value="rxd=1" style="edgeLabel;html=1;align=center;verticalAlign=middle;resizable=0;points=[];" vertex="1" connectable="0" parent="7bdO0_Jatn6OFKNcG_lT-25">
          <mxGeometry x="0.2842" y="2" relative="1" as="geometry">
            <mxPoint as="offset" />
          </mxGeometry>
        </mxCell>
        <mxCell id="7bdO0_Jatn6OFKNcG_lT-26" value="" style="endArrow=none;html=1;rounded=0;fillColor=#dae8fc;strokeColor=#6c8ebf;" edge="1" parent="1">
          <mxGeometry width="50" height="50" relative="1" as="geometry">
            <mxPoint x="320" y="820" as="sourcePoint" />
            <mxPoint x="320" y="520" as="targetPoint" />
          </mxGeometry>
        </mxCell>
        <mxCell id="7bdO0_Jatn6OFKNcG_lT-28" value="" style="endArrow=none;html=1;rounded=0;exitX=1;exitY=0.5;exitDx=0;exitDy=0;fillColor=#dae8fc;strokeColor=#6c8ebf;" edge="1" parent="1" source="7bdO0_Jatn6OFKNcG_lT-3">
          <mxGeometry width="50" height="50" relative="1" as="geometry">
            <mxPoint x="310" y="600" as="sourcePoint" />
            <mxPoint x="320" y="580" as="targetPoint" />
          </mxGeometry>
        </mxCell>
        <mxCell id="7bdO0_Jatn6OFKNcG_lT-82" value="rxd=1" style="edgeLabel;html=1;align=center;verticalAlign=middle;resizable=0;points=[];" vertex="1" connectable="0" parent="7bdO0_Jatn6OFKNcG_lT-28">
          <mxGeometry x="-0.1024" y="-1" relative="1" as="geometry">
            <mxPoint as="offset" />
          </mxGeometry>
        </mxCell>
        <mxCell id="7bdO0_Jatn6OFKNcG_lT-29" value="" style="endArrow=none;html=1;rounded=0;exitX=1;exitY=0.5;exitDx=0;exitDy=0;fillColor=#dae8fc;strokeColor=#6c8ebf;" edge="1" parent="1">
          <mxGeometry width="50" height="50" relative="1" as="geometry">
            <mxPoint x="280" y="659.83" as="sourcePoint" />
            <mxPoint x="320" y="659.83" as="targetPoint" />
          </mxGeometry>
        </mxCell>
        <mxCell id="7bdO0_Jatn6OFKNcG_lT-83" value="rxd=1" style="edgeLabel;html=1;align=center;verticalAlign=middle;resizable=0;points=[];" vertex="1" connectable="0" parent="7bdO0_Jatn6OFKNcG_lT-29">
          <mxGeometry x="-0.3405" relative="1" as="geometry">
            <mxPoint x="7" as="offset" />
          </mxGeometry>
        </mxCell>
        <mxCell id="7bdO0_Jatn6OFKNcG_lT-30" value="" style="endArrow=none;html=1;rounded=0;exitX=1;exitY=0.5;exitDx=0;exitDy=0;fillColor=#dae8fc;strokeColor=#6c8ebf;" edge="1" parent="1">
          <mxGeometry width="50" height="50" relative="1" as="geometry">
            <mxPoint x="280" y="739.83" as="sourcePoint" />
            <mxPoint x="320" y="739.83" as="targetPoint" />
          </mxGeometry>
        </mxCell>
        <mxCell id="7bdO0_Jatn6OFKNcG_lT-84" value="rxd=1" style="edgeLabel;html=1;align=center;verticalAlign=middle;resizable=0;points=[];" vertex="1" connectable="0" parent="7bdO0_Jatn6OFKNcG_lT-30">
          <mxGeometry x="0.0405" y="-1" relative="1" as="geometry">
            <mxPoint as="offset" />
          </mxGeometry>
        </mxCell>
        <mxCell id="7bdO0_Jatn6OFKNcG_lT-31" value="" style="endArrow=none;html=1;rounded=0;exitX=1;exitY=0.5;exitDx=0;exitDy=0;fillColor=#dae8fc;strokeColor=#6c8ebf;" edge="1" parent="1">
          <mxGeometry width="50" height="50" relative="1" as="geometry">
            <mxPoint x="280" y="819.83" as="sourcePoint" />
            <mxPoint x="320" y="819.83" as="targetPoint" />
          </mxGeometry>
        </mxCell>
        <mxCell id="7bdO0_Jatn6OFKNcG_lT-85" value="rxd=1" style="edgeLabel;html=1;align=center;verticalAlign=middle;resizable=0;points=[];" vertex="1" connectable="0" parent="7bdO0_Jatn6OFKNcG_lT-31">
          <mxGeometry x="-0.2452" y="-2" relative="1" as="geometry">
            <mxPoint as="offset" />
          </mxGeometry>
        </mxCell>
        <mxCell id="7bdO0_Jatn6OFKNcG_lT-32" value="" style="endArrow=classic;html=1;rounded=0;entryX=0;entryY=0.5;entryDx=0;entryDy=0;" edge="1" parent="1" target="7bdO0_Jatn6OFKNcG_lT-12">
          <mxGeometry width="50" height="50" relative="1" as="geometry">
            <mxPoint x="239.83" y="840" as="sourcePoint" />
            <mxPoint x="239.83" y="880" as="targetPoint" />
            <Array as="points">
              <mxPoint x="240" y="900" />
            </Array>
          </mxGeometry>
        </mxCell>
        <mxCell id="7bdO0_Jatn6OFKNcG_lT-68" value="rxd=1 | stuffbit" style="edgeLabel;html=1;align=center;verticalAlign=middle;resizable=0;points=[];" vertex="1" connectable="0" parent="7bdO0_Jatn6OFKNcG_lT-32">
          <mxGeometry x="-0.1664" y="1" relative="1" as="geometry">
            <mxPoint x="29" y="1" as="offset" />
          </mxGeometry>
        </mxCell>
        <mxCell id="7bdO0_Jatn6OFKNcG_lT-33" value="" style="endArrow=none;html=1;rounded=0;fillColor=#d5e8d4;strokeColor=#82b366;" edge="1" parent="1">
          <mxGeometry width="50" height="50" relative="1" as="geometry">
            <mxPoint x="400" y="820" as="sourcePoint" />
            <mxPoint x="400" y="520" as="targetPoint" />
          </mxGeometry>
        </mxCell>
        <mxCell id="7bdO0_Jatn6OFKNcG_lT-34" value="" style="endArrow=none;html=1;rounded=0;entryX=1;entryY=0.5;entryDx=0;entryDy=0;exitX=0;exitY=1;exitDx=0;exitDy=0;fillColor=#d5e8d4;strokeColor=#82b366;" edge="1" parent="1" source="7bdO0_Jatn6OFKNcG_lT-7">
          <mxGeometry width="50" height="50" relative="1" as="geometry">
            <mxPoint x="440" y="540" as="sourcePoint" />
            <mxPoint x="400" y="520" as="targetPoint" />
          </mxGeometry>
        </mxCell>
        <mxCell id="7bdO0_Jatn6OFKNcG_lT-92" value="rxd=0" style="edgeLabel;html=1;align=center;verticalAlign=middle;resizable=0;points=[];" vertex="1" connectable="0" parent="7bdO0_Jatn6OFKNcG_lT-34">
          <mxGeometry x="0.1181" relative="1" as="geometry">
            <mxPoint as="offset" />
          </mxGeometry>
        </mxCell>
        <mxCell id="7bdO0_Jatn6OFKNcG_lT-35" value="" style="endArrow=classic;html=1;rounded=0;entryX=1;entryY=0.5;entryDx=0;entryDy=0;fillColor=#d5e8d4;strokeColor=#82b366;" edge="1" parent="1" target="7bdO0_Jatn6OFKNcG_lT-2">
          <mxGeometry width="50" height="50" relative="1" as="geometry">
            <mxPoint x="400" y="520" as="sourcePoint" />
            <mxPoint x="520" y="500" as="targetPoint" />
          </mxGeometry>
        </mxCell>
        <mxCell id="7bdO0_Jatn6OFKNcG_lT-36" value="" style="endArrow=none;html=1;rounded=0;exitX=1;exitY=0.5;exitDx=0;exitDy=0;fillColor=#d5e8d4;strokeColor=#82b366;" edge="1" parent="1">
          <mxGeometry width="50" height="50" relative="1" as="geometry">
            <mxPoint x="400" y="579.8" as="sourcePoint" />
            <mxPoint x="440" y="579.8" as="targetPoint" />
          </mxGeometry>
        </mxCell>
        <mxCell id="7bdO0_Jatn6OFKNcG_lT-91" value="rxd=0" style="edgeLabel;html=1;align=center;verticalAlign=middle;resizable=0;points=[];" vertex="1" connectable="0" parent="7bdO0_Jatn6OFKNcG_lT-36">
          <mxGeometry x="0.0861" relative="1" as="geometry">
            <mxPoint as="offset" />
          </mxGeometry>
        </mxCell>
        <mxCell id="7bdO0_Jatn6OFKNcG_lT-37" value="" style="endArrow=none;html=1;rounded=0;exitX=1;exitY=0.5;exitDx=0;exitDy=0;fillColor=#d5e8d4;strokeColor=#82b366;" edge="1" parent="1">
          <mxGeometry width="50" height="50" relative="1" as="geometry">
            <mxPoint x="400" y="659.8" as="sourcePoint" />
            <mxPoint x="440" y="659.8" as="targetPoint" />
          </mxGeometry>
        </mxCell>
        <mxCell id="7bdO0_Jatn6OFKNcG_lT-90" value="rxd=0" style="edgeLabel;html=1;align=center;verticalAlign=middle;resizable=0;points=[];" vertex="1" connectable="0" parent="7bdO0_Jatn6OFKNcG_lT-37">
          <mxGeometry x="-0.1639" y="-1" relative="1" as="geometry">
            <mxPoint as="offset" />
          </mxGeometry>
        </mxCell>
        <mxCell id="7bdO0_Jatn6OFKNcG_lT-38" value="" style="endArrow=none;html=1;rounded=0;exitX=1;exitY=0.5;exitDx=0;exitDy=0;fillColor=#d5e8d4;strokeColor=#82b366;" edge="1" parent="1">
          <mxGeometry width="50" height="50" relative="1" as="geometry">
            <mxPoint x="400" y="739.8" as="sourcePoint" />
            <mxPoint x="440" y="739.8" as="targetPoint" />
          </mxGeometry>
        </mxCell>
        <mxCell id="7bdO0_Jatn6OFKNcG_lT-89" value="rxd=0" style="edgeLabel;html=1;align=center;verticalAlign=middle;resizable=0;points=[];" vertex="1" connectable="0" parent="7bdO0_Jatn6OFKNcG_lT-38">
          <mxGeometry x="0.2741" y="-2" relative="1" as="geometry">
            <mxPoint x="-12" y="-2" as="offset" />
          </mxGeometry>
        </mxCell>
        <mxCell id="7bdO0_Jatn6OFKNcG_lT-39" value="" style="endArrow=none;html=1;rounded=0;exitX=1;exitY=0.5;exitDx=0;exitDy=0;fillColor=#d5e8d4;strokeColor=#82b366;" edge="1" parent="1">
          <mxGeometry width="50" height="50" relative="1" as="geometry">
            <mxPoint x="400" y="819.8" as="sourcePoint" />
            <mxPoint x="440" y="819.8" as="targetPoint" />
          </mxGeometry>
        </mxCell>
        <mxCell id="7bdO0_Jatn6OFKNcG_lT-88" value="rxd=0" style="edgeLabel;html=1;align=center;verticalAlign=middle;resizable=0;points=[];" vertex="1" connectable="0" parent="7bdO0_Jatn6OFKNcG_lT-39">
          <mxGeometry x="0.1119" relative="1" as="geometry">
            <mxPoint as="offset" />
          </mxGeometry>
        </mxCell>
        <mxCell id="7bdO0_Jatn6OFKNcG_lT-40" value="" style="endArrow=classic;html=1;rounded=0;entryX=1;entryY=0.5;entryDx=0;entryDy=0;" edge="1" parent="1" target="7bdO0_Jatn6OFKNcG_lT-12">
          <mxGeometry width="50" height="50" relative="1" as="geometry">
            <mxPoint x="480" y="840" as="sourcePoint" />
            <mxPoint x="530" y="790" as="targetPoint" />
            <Array as="points">
              <mxPoint x="480" y="900" />
            </Array>
          </mxGeometry>
        </mxCell>
        <mxCell id="7bdO0_Jatn6OFKNcG_lT-79" value="rxd=0 | stuffbit" style="edgeLabel;html=1;align=center;verticalAlign=middle;resizable=0;points=[];" vertex="1" connectable="0" parent="7bdO0_Jatn6OFKNcG_lT-40">
          <mxGeometry x="-0.1343" relative="1" as="geometry">
            <mxPoint x="-30" as="offset" />
          </mxGeometry>
        </mxCell>
        <mxCell id="7bdO0_Jatn6OFKNcG_lT-41" value="" style="endArrow=none;html=1;rounded=0;exitX=0;exitY=0;exitDx=0;exitDy=0;fillColor=#dae8fc;strokeColor=#6c8ebf;" edge="1" parent="1" source="7bdO0_Jatn6OFKNcG_lT-12">
          <mxGeometry width="50" height="50" relative="1" as="geometry">
            <mxPoint x="335" y="860" as="sourcePoint" />
            <mxPoint x="320" y="820" as="targetPoint" />
          </mxGeometry>
        </mxCell>
        <mxCell id="7bdO0_Jatn6OFKNcG_lT-86" value="rxd=1 &amp;amp; last_rxd=0" style="edgeLabel;html=1;align=center;verticalAlign=middle;resizable=0;points=[];" vertex="1" connectable="0" parent="7bdO0_Jatn6OFKNcG_lT-41">
          <mxGeometry x="0.1524" y="1" relative="1" as="geometry">
            <mxPoint y="-8" as="offset" />
          </mxGeometry>
        </mxCell>
        <mxCell id="7bdO0_Jatn6OFKNcG_lT-42" value="" style="endArrow=none;html=1;rounded=0;exitX=1;exitY=0;exitDx=0;exitDy=0;fillColor=#d5e8d4;strokeColor=#82b366;" edge="1" parent="1" source="7bdO0_Jatn6OFKNcG_lT-12">
          <mxGeometry width="50" height="50" relative="1" as="geometry">
            <mxPoint x="350" y="870" as="sourcePoint" />
            <mxPoint x="400" y="820" as="targetPoint" />
          </mxGeometry>
        </mxCell>
        <mxCell id="7bdO0_Jatn6OFKNcG_lT-87" value="rxd=0 &amp;amp; last_rxd=0" style="edgeLabel;html=1;align=center;verticalAlign=middle;resizable=0;points=[];" vertex="1" connectable="0" parent="7bdO0_Jatn6OFKNcG_lT-42">
          <mxGeometry x="-0.3712" y="-1" relative="1" as="geometry">
            <mxPoint as="offset" />
          </mxGeometry>
        </mxCell>
        <mxCell id="7bdO0_Jatn6OFKNcG_lT-43" value="" style="endArrow=none;html=1;rounded=0;fillColor=#f8cecc;strokeColor=#b85450;" edge="1" parent="1">
          <mxGeometry width="50" height="50" relative="1" as="geometry">
            <mxPoint x="160" y="820" as="sourcePoint" />
            <mxPoint x="160" y="360" as="targetPoint" />
          </mxGeometry>
        </mxCell>
        <mxCell id="7bdO0_Jatn6OFKNcG_lT-44" value="" style="endArrow=none;html=1;rounded=0;fillColor=#f8cecc;strokeColor=#b85450;" edge="1" parent="1">
          <mxGeometry width="50" height="50" relative="1" as="geometry">
            <mxPoint x="560" y="820" as="sourcePoint" />
            <mxPoint x="560" y="360" as="targetPoint" />
          </mxGeometry>
        </mxCell>
        <mxCell id="7bdO0_Jatn6OFKNcG_lT-45" value="" style="endArrow=none;html=1;rounded=0;fillColor=#f8cecc;strokeColor=#b85450;" edge="1" parent="1">
          <mxGeometry width="50" height="50" relative="1" as="geometry">
            <mxPoint x="160" y="360" as="sourcePoint" />
            <mxPoint x="560" y="360" as="targetPoint" />
          </mxGeometry>
        </mxCell>
        <mxCell id="7bdO0_Jatn6OFKNcG_lT-46" value="" style="endArrow=classic;html=1;rounded=0;entryX=0.5;entryY=0;entryDx=0;entryDy=0;fillColor=#f8cecc;strokeColor=#b85450;" edge="1" parent="1" target="7bdO0_Jatn6OFKNcG_lT-1">
          <mxGeometry width="50" height="50" relative="1" as="geometry">
            <mxPoint x="360" y="360" as="sourcePoint" />
            <mxPoint x="490" y="390" as="targetPoint" />
          </mxGeometry>
        </mxCell>
        <mxCell id="7bdO0_Jatn6OFKNcG_lT-47" value="" style="endArrow=none;html=1;rounded=0;entryX=0;entryY=0.5;entryDx=0;entryDy=0;fillColor=#f8cecc;strokeColor=#b85450;" edge="1" parent="1" target="7bdO0_Jatn6OFKNcG_lT-6">
          <mxGeometry width="50" height="50" relative="1" as="geometry">
            <mxPoint x="160" y="820" as="sourcePoint" />
            <mxPoint x="120" y="840" as="targetPoint" />
          </mxGeometry>
        </mxCell>
        <mxCell id="7bdO0_Jatn6OFKNcG_lT-125" value="rst || rxd=0&lt;br&gt;stuffbit_error" style="edgeLabel;html=1;align=center;verticalAlign=middle;resizable=0;points=[];" vertex="1" connectable="0" parent="7bdO0_Jatn6OFKNcG_lT-47">
          <mxGeometry x="-0.3056" y="1" relative="1" as="geometry">
            <mxPoint x="-14" y="-9" as="offset" />
          </mxGeometry>
        </mxCell>
        <mxCell id="7bdO0_Jatn6OFKNcG_lT-48" value="" style="endArrow=none;html=1;rounded=0;entryX=0;entryY=0.5;entryDx=0;entryDy=0;fillColor=#f8cecc;strokeColor=#b85450;" edge="1" parent="1">
          <mxGeometry width="50" height="50" relative="1" as="geometry">
            <mxPoint x="160" y="739.8" as="sourcePoint" />
            <mxPoint x="200" y="739.8" as="targetPoint" />
          </mxGeometry>
        </mxCell>
        <mxCell id="7bdO0_Jatn6OFKNcG_lT-100" value="rst" style="edgeLabel;html=1;align=center;verticalAlign=middle;resizable=0;points=[];" vertex="1" connectable="0" parent="7bdO0_Jatn6OFKNcG_lT-48">
          <mxGeometry x="0.06" y="-1" relative="1" as="geometry">
            <mxPoint as="offset" />
          </mxGeometry>
        </mxCell>
        <mxCell id="7bdO0_Jatn6OFKNcG_lT-49" value="" style="endArrow=none;html=1;rounded=0;entryX=0;entryY=0.5;entryDx=0;entryDy=0;fillColor=#f8cecc;strokeColor=#b85450;" edge="1" parent="1">
          <mxGeometry width="50" height="50" relative="1" as="geometry">
            <mxPoint x="160" y="659.8" as="sourcePoint" />
            <mxPoint x="200" y="659.8" as="targetPoint" />
          </mxGeometry>
        </mxCell>
        <mxCell id="7bdO0_Jatn6OFKNcG_lT-101" value="rst" style="edgeLabel;html=1;align=center;verticalAlign=middle;resizable=0;points=[];" vertex="1" connectable="0" parent="7bdO0_Jatn6OFKNcG_lT-49">
          <mxGeometry x="-0.02" y="2" relative="1" as="geometry">
            <mxPoint as="offset" />
          </mxGeometry>
        </mxCell>
        <mxCell id="7bdO0_Jatn6OFKNcG_lT-50" value="" style="endArrow=none;html=1;rounded=0;entryX=0;entryY=0.5;entryDx=0;entryDy=0;fillColor=#f8cecc;strokeColor=#b85450;" edge="1" parent="1">
          <mxGeometry width="50" height="50" relative="1" as="geometry">
            <mxPoint x="160" y="579.8" as="sourcePoint" />
            <mxPoint x="200" y="579.8" as="targetPoint" />
          </mxGeometry>
        </mxCell>
        <mxCell id="7bdO0_Jatn6OFKNcG_lT-102" value="rst" style="edgeLabel;html=1;align=center;verticalAlign=middle;resizable=0;points=[];" vertex="1" connectable="0" parent="7bdO0_Jatn6OFKNcG_lT-50">
          <mxGeometry x="0.04" y="-1" relative="1" as="geometry">
            <mxPoint as="offset" />
          </mxGeometry>
        </mxCell>
        <mxCell id="7bdO0_Jatn6OFKNcG_lT-51" value="" style="endArrow=none;html=1;rounded=0;entryX=0;entryY=0.5;entryDx=0;entryDy=0;fillColor=#f8cecc;strokeColor=#b85450;" edge="1" parent="1">
          <mxGeometry width="50" height="50" relative="1" as="geometry">
            <mxPoint x="160" y="500" as="sourcePoint" />
            <mxPoint x="200" y="500" as="targetPoint" />
          </mxGeometry>
        </mxCell>
        <mxCell id="7bdO0_Jatn6OFKNcG_lT-103" value="rst" style="edgeLabel;html=1;align=center;verticalAlign=middle;resizable=0;points=[];" vertex="1" connectable="0" parent="7bdO0_Jatn6OFKNcG_lT-51">
          <mxGeometry x="0.18" y="1" relative="1" as="geometry">
            <mxPoint as="offset" />
          </mxGeometry>
        </mxCell>
        <mxCell id="7bdO0_Jatn6OFKNcG_lT-52" value="" style="endArrow=none;html=1;rounded=0;entryX=0;entryY=0.5;entryDx=0;entryDy=0;fillColor=#f8cecc;strokeColor=#b85450;" edge="1" parent="1">
          <mxGeometry width="50" height="50" relative="1" as="geometry">
            <mxPoint x="520" y="499.8" as="sourcePoint" />
            <mxPoint x="560" y="499.8" as="targetPoint" />
          </mxGeometry>
        </mxCell>
        <mxCell id="7bdO0_Jatn6OFKNcG_lT-93" value="rst" style="edgeLabel;html=1;align=center;verticalAlign=middle;resizable=0;points=[];" vertex="1" connectable="0" parent="7bdO0_Jatn6OFKNcG_lT-52">
          <mxGeometry x="-0.34" y="-1" relative="1" as="geometry">
            <mxPoint as="offset" />
          </mxGeometry>
        </mxCell>
        <mxCell id="7bdO0_Jatn6OFKNcG_lT-53" value="" style="endArrow=none;html=1;rounded=0;entryX=0;entryY=0.5;entryDx=0;entryDy=0;fillColor=#f8cecc;strokeColor=#b85450;" edge="1" parent="1">
          <mxGeometry width="50" height="50" relative="1" as="geometry">
            <mxPoint x="520" y="579.8" as="sourcePoint" />
            <mxPoint x="560" y="579.8" as="targetPoint" />
          </mxGeometry>
        </mxCell>
        <mxCell id="7bdO0_Jatn6OFKNcG_lT-94" value="rst" style="edgeLabel;html=1;align=center;verticalAlign=middle;resizable=0;points=[];" vertex="1" connectable="0" parent="7bdO0_Jatn6OFKNcG_lT-53">
          <mxGeometry x="0.02" relative="1" as="geometry">
            <mxPoint as="offset" />
          </mxGeometry>
        </mxCell>
        <mxCell id="7bdO0_Jatn6OFKNcG_lT-54" value="" style="endArrow=none;html=1;rounded=0;entryX=0;entryY=0.5;entryDx=0;entryDy=0;fillColor=#f8cecc;strokeColor=#b85450;" edge="1" parent="1">
          <mxGeometry width="50" height="50" relative="1" as="geometry">
            <mxPoint x="520" y="659.8" as="sourcePoint" />
            <mxPoint x="560" y="659.8" as="targetPoint" />
          </mxGeometry>
        </mxCell>
        <mxCell id="7bdO0_Jatn6OFKNcG_lT-95" value="rst" style="edgeLabel;html=1;align=center;verticalAlign=middle;resizable=0;points=[];" vertex="1" connectable="0" parent="7bdO0_Jatn6OFKNcG_lT-54">
          <mxGeometry x="0.18" y="-2" relative="1" as="geometry">
            <mxPoint as="offset" />
          </mxGeometry>
        </mxCell>
        <mxCell id="7bdO0_Jatn6OFKNcG_lT-55" value="" style="endArrow=none;html=1;rounded=0;entryX=0;entryY=0.5;entryDx=0;entryDy=0;fillColor=#f8cecc;strokeColor=#b85450;" edge="1" parent="1">
          <mxGeometry width="50" height="50" relative="1" as="geometry">
            <mxPoint x="520" y="739.8" as="sourcePoint" />
            <mxPoint x="560" y="739.8" as="targetPoint" />
          </mxGeometry>
        </mxCell>
        <mxCell id="7bdO0_Jatn6OFKNcG_lT-96" value="rst" style="edgeLabel;html=1;align=center;verticalAlign=middle;resizable=0;points=[];" vertex="1" connectable="0" parent="7bdO0_Jatn6OFKNcG_lT-55">
          <mxGeometry x="-0.1" y="-2" relative="1" as="geometry">
            <mxPoint as="offset" />
          </mxGeometry>
        </mxCell>
        <mxCell id="7bdO0_Jatn6OFKNcG_lT-56" value="" style="endArrow=none;html=1;rounded=0;entryX=0;entryY=0.5;entryDx=0;entryDy=0;fillColor=#f8cecc;strokeColor=#b85450;" edge="1" parent="1">
          <mxGeometry width="50" height="50" relative="1" as="geometry">
            <mxPoint x="520" y="819.8" as="sourcePoint" />
            <mxPoint x="560" y="819.8" as="targetPoint" />
          </mxGeometry>
        </mxCell>
        <mxCell id="7bdO0_Jatn6OFKNcG_lT-97" value="rst | rxd=1&lt;br&gt;stuffbit_error" style="edgeLabel;html=1;align=center;verticalAlign=middle;resizable=0;points=[];rotation=-90;" vertex="1" connectable="0" parent="7bdO0_Jatn6OFKNcG_lT-56">
          <mxGeometry x="-0.16" relative="1" as="geometry">
            <mxPoint as="offset" />
          </mxGeometry>
        </mxCell>
        <mxCell id="7bdO0_Jatn6OFKNcG_lT-57" value="" style="endArrow=none;html=1;rounded=0;fillColor=#f8cecc;strokeColor=#b85450;" edge="1" parent="1">
          <mxGeometry width="50" height="50" relative="1" as="geometry">
            <mxPoint x="360" y="960" as="sourcePoint" />
            <mxPoint x="360" y="920" as="targetPoint" />
          </mxGeometry>
        </mxCell>
        <mxCell id="7bdO0_Jatn6OFKNcG_lT-58" value="" style="endArrow=none;html=1;rounded=0;fillColor=#f8cecc;strokeColor=#b85450;" edge="1" parent="1">
          <mxGeometry width="50" height="50" relative="1" as="geometry">
            <mxPoint x="360" y="960" as="sourcePoint" />
            <mxPoint x="560" y="960" as="targetPoint" />
          </mxGeometry>
        </mxCell>
        <mxCell id="7bdO0_Jatn6OFKNcG_lT-98" value="rst" style="edgeLabel;html=1;align=center;verticalAlign=middle;resizable=0;points=[];" vertex="1" connectable="0" parent="7bdO0_Jatn6OFKNcG_lT-58">
          <mxGeometry x="0.516" y="-1" relative="1" as="geometry">
            <mxPoint as="offset" />
          </mxGeometry>
        </mxCell>
        <mxCell id="7bdO0_Jatn6OFKNcG_lT-59" value="" style="endArrow=none;html=1;rounded=0;fillColor=#f8cecc;strokeColor=#b85450;" edge="1" parent="1">
          <mxGeometry width="50" height="50" relative="1" as="geometry">
            <mxPoint x="560" y="960" as="sourcePoint" />
            <mxPoint x="560" y="820" as="targetPoint" />
          </mxGeometry>
        </mxCell>
        <mxCell id="7bdO0_Jatn6OFKNcG_lT-104" value="" style="endArrow=classic;html=1;rounded=0;exitX=0;exitY=1;exitDx=0;exitDy=0;entryX=0;entryY=1;entryDx=0;entryDy=0;fillColor=#e1d5e7;strokeColor=#9673a6;" edge="1" parent="1" source="7bdO0_Jatn6OFKNcG_lT-12" target="7bdO0_Jatn6OFKNcG_lT-3">
          <mxGeometry width="50" height="50" relative="1" as="geometry">
            <mxPoint x="331.7157287525381" y="930.0021356237311" as="sourcePoint" />
            <mxPoint x="120" y="580" as="targetPoint" />
            <Array as="points">
              <mxPoint x="280" y="940" />
              <mxPoint x="120" y="940" />
              <mxPoint x="120" y="640" />
            </Array>
          </mxGeometry>
        </mxCell>
        <mxCell id="7bdO0_Jatn6OFKNcG_lT-106" value="rxd=1 &amp;amp; last_rxt=1" style="edgeLabel;html=1;align=center;verticalAlign=middle;resizable=0;points=[];" vertex="1" connectable="0" parent="7bdO0_Jatn6OFKNcG_lT-104">
          <mxGeometry x="-0.5277" y="-1" relative="1" as="geometry">
            <mxPoint as="offset" />
          </mxGeometry>
        </mxCell>
        <mxCell id="7bdO0_Jatn6OFKNcG_lT-105" value="" style="endArrow=classic;html=1;rounded=0;exitX=1;exitY=1;exitDx=0;exitDy=0;entryX=1;entryY=1;entryDx=0;entryDy=0;fillColor=#e1d5e7;strokeColor=#9673a6;" edge="1" parent="1" source="7bdO0_Jatn6OFKNcG_lT-12" target="7bdO0_Jatn6OFKNcG_lT-8">
          <mxGeometry width="50" height="50" relative="1" as="geometry">
            <mxPoint x="470" y="940" as="sourcePoint" />
            <mxPoint x="640" y="920" as="targetPoint" />
            <Array as="points">
              <mxPoint x="440" y="940" />
              <mxPoint x="600" y="940" />
              <mxPoint x="600" y="640" />
            </Array>
          </mxGeometry>
        </mxCell>
        <mxCell id="7bdO0_Jatn6OFKNcG_lT-107" value="rxd=0 &amp;amp; last_rxd = 1" style="edgeLabel;html=1;align=center;verticalAlign=middle;resizable=0;points=[];" vertex="1" connectable="0" parent="7bdO0_Jatn6OFKNcG_lT-105">
          <mxGeometry x="-0.7201" y="-1" relative="1" as="geometry">
            <mxPoint x="31" as="offset" />
          </mxGeometry>
        </mxCell>
        <mxCell id="7bdO0_Jatn6OFKNcG_lT-109" value="Last Bit" style="rounded=0;whiteSpace=wrap;html=1;fillColor=#f5f5f5;fontColor=#333333;strokeColor=#666666;" vertex="1" parent="1">
          <mxGeometry x="-80" y="340" width="120" height="60" as="geometry" />
        </mxCell>
        <mxCell id="7bdO0_Jatn6OFKNcG_lT-110" value="" style="endArrow=classic;html=1;rounded=0;entryX=0.002;entryY=0.048;entryDx=0;entryDy=0;entryPerimeter=0;" edge="1" parent="1" target="7bdO0_Jatn6OFKNcG_lT-108">
          <mxGeometry width="50" height="50" relative="1" as="geometry">
            <mxPoint x="40" y="370" as="sourcePoint" />
            <mxPoint x="90" y="320" as="targetPoint" />
          </mxGeometry>
        </mxCell>
        <mxCell id="7bdO0_Jatn6OFKNcG_lT-111" value="" style="rounded=0;whiteSpace=wrap;html=1;fillColor=#dae8fc;strokeColor=#6c8ebf;" vertex="1" parent="1">
          <mxGeometry x="-200" y="320" width="40" height="680" as="geometry" />
        </mxCell>
        <mxCell id="7bdO0_Jatn6OFKNcG_lT-112" value="" style="rounded=0;whiteSpace=wrap;html=1;fillColor=#f8cecc;strokeColor=#b85450;" vertex="1" parent="1">
          <mxGeometry x="720" y="320" width="40" height="680" as="geometry" />
        </mxCell>
        <mxCell id="7bdO0_Jatn6OFKNcG_lT-113" value="" style="endArrow=classic;html=1;rounded=0;entryX=0;entryY=0.5;entryDx=0;entryDy=0;" edge="1" parent="1">
          <mxGeometry width="50" height="50" relative="1" as="geometry">
            <mxPoint x="-160" y="360" as="sourcePoint" />
            <mxPoint x="-80" y="360" as="targetPoint" />
          </mxGeometry>
        </mxCell>
        <mxCell id="7bdO0_Jatn6OFKNcG_lT-114" value="rxd" style="edgeLabel;html=1;align=center;verticalAlign=middle;resizable=0;points=[];" vertex="1" connectable="0" parent="7bdO0_Jatn6OFKNcG_lT-113">
          <mxGeometry x="-0.0929" relative="1" as="geometry">
            <mxPoint as="offset" />
          </mxGeometry>
        </mxCell>
        <mxCell id="7bdO0_Jatn6OFKNcG_lT-115" value="" style="endArrow=classic;html=1;rounded=0;entryX=0;entryY=0.155;entryDx=0;entryDy=0;entryPerimeter=0;" edge="1" parent="1" target="7bdO0_Jatn6OFKNcG_lT-108">
          <mxGeometry width="50" height="50" relative="1" as="geometry">
            <mxPoint x="-160" y="439.43" as="sourcePoint" />
            <mxPoint x="-80" y="439.43" as="targetPoint" />
          </mxGeometry>
        </mxCell>
        <mxCell id="7bdO0_Jatn6OFKNcG_lT-116" value="rxd" style="edgeLabel;html=1;align=center;verticalAlign=middle;resizable=0;points=[];" vertex="1" connectable="0" parent="7bdO0_Jatn6OFKNcG_lT-115">
          <mxGeometry x="-0.0929" relative="1" as="geometry">
            <mxPoint as="offset" />
          </mxGeometry>
        </mxCell>
        <mxCell id="7bdO0_Jatn6OFKNcG_lT-117" value="" style="endArrow=classic;html=1;rounded=0;entryX=-0.012;entryY=0.843;entryDx=0;entryDy=0;entryPerimeter=0;" edge="1" parent="1">
          <mxGeometry width="50" height="50" relative="1" as="geometry">
            <mxPoint x="-158.56" y="380" as="sourcePoint" />
            <mxPoint x="-80.00000000000006" y="380.5799999999999" as="targetPoint" />
          </mxGeometry>
        </mxCell>
        <mxCell id="7bdO0_Jatn6OFKNcG_lT-118" value="sample" style="edgeLabel;html=1;align=center;verticalAlign=middle;resizable=0;points=[];" vertex="1" connectable="0" parent="7bdO0_Jatn6OFKNcG_lT-117">
          <mxGeometry x="-0.2509" y="1" relative="1" as="geometry">
            <mxPoint x="11" as="offset" />
          </mxGeometry>
        </mxCell>
        <mxCell id="7bdO0_Jatn6OFKNcG_lT-119" value="" style="endArrow=classic;html=1;rounded=0;" edge="1" parent="1">
          <mxGeometry width="50" height="50" relative="1" as="geometry">
            <mxPoint x="-159" y="480" as="sourcePoint" />
            <mxPoint x="100" y="479" as="targetPoint" />
          </mxGeometry>
        </mxCell>
        <mxCell id="7bdO0_Jatn6OFKNcG_lT-120" value="sample" style="edgeLabel;html=1;align=center;verticalAlign=middle;resizable=0;points=[];" vertex="1" connectable="0" parent="7bdO0_Jatn6OFKNcG_lT-119">
          <mxGeometry x="-0.2509" y="1" relative="1" as="geometry">
            <mxPoint x="11" as="offset" />
          </mxGeometry>
        </mxCell>
        <mxCell id="7bdO0_Jatn6OFKNcG_lT-121" value="" style="endArrow=classic;html=1;rounded=0;" edge="1" parent="1">
          <mxGeometry width="50" height="50" relative="1" as="geometry">
            <mxPoint x="-159" y="520" as="sourcePoint" />
            <mxPoint x="100" y="519" as="targetPoint" />
          </mxGeometry>
        </mxCell>
        <mxCell id="7bdO0_Jatn6OFKNcG_lT-122" value="reset" style="edgeLabel;html=1;align=center;verticalAlign=middle;resizable=0;points=[];" vertex="1" connectable="0" parent="7bdO0_Jatn6OFKNcG_lT-121">
          <mxGeometry x="-0.2509" y="1" relative="1" as="geometry">
            <mxPoint x="11" as="offset" />
          </mxGeometry>
        </mxCell>
        <mxCell id="7bdO0_Jatn6OFKNcG_lT-123" value="stuffbit" style="endArrow=classic;html=1;rounded=0;entryX=-0.036;entryY=0.176;entryDx=0;entryDy=0;entryPerimeter=0;exitX=1.001;exitY=0.156;exitDx=0;exitDy=0;exitPerimeter=0;" edge="1" parent="1" source="7bdO0_Jatn6OFKNcG_lT-108" target="7bdO0_Jatn6OFKNcG_lT-112">
          <mxGeometry width="50" height="50" relative="1" as="geometry">
            <mxPoint x="620" y="439" as="sourcePoint" />
            <mxPoint x="720" y="510" as="targetPoint" />
          </mxGeometry>
        </mxCell>
        <mxCell id="7bdO0_Jatn6OFKNcG_lT-124" value="stuffbit_error" style="endArrow=classic;html=1;rounded=0;entryX=-0.036;entryY=0.176;entryDx=0;entryDy=0;entryPerimeter=0;exitX=1.001;exitY=0.156;exitDx=0;exitDy=0;exitPerimeter=0;" edge="1" parent="1">
          <mxGeometry width="50" height="50" relative="1" as="geometry">
            <mxPoint x="620" y="479.81" as="sourcePoint" />
            <mxPoint x="718" y="479.81" as="targetPoint" />
          </mxGeometry>
        </mxCell>
      </root>
    </mxGraphModel>
  </diagram>
</mxfile>
